<?xml version="1.0" standalone="no"?>
<!DOCTYPE svg PUBLIC "-//W3C//DTD SVG 20010904//EN"
 "http://www.w3.org/TR/2001/REC-SVG-20010904/DTD/svg10.dtd">
<svg version="1.0" xmlns="http://www.w3.org/2000/svg"
 width="533.000000pt" height="583.000000pt" viewBox="0 0 533.000000 583.000000"
 preserveAspectRatio="xMidYMid meet">

<g transform="translate(0.000000,583.000000) scale(0.100000,-0.100000)"
fill="#000000" stroke="none">
<path d="M0 2915 l0 -2915 2665 0 2665 0 0 2915 0 2915 -2665 0 -2665 0 0
-2915z m2670 2840 c42 -22 63 -68 57 -124 -15 -134 -206 -137 -224 -4 -4 32
-1 50 17 77 37 61 93 80 150 51z m323 -50 c297 -45 668 -185 942 -357 393
-246 724 -615 939 -1046 109 -219 211 -544 223 -709 l6 -83 -47 0 c-26 0 -62
-6 -81 -14 l-34 -15 -5 32 c-30 192 -42 255 -72 360 -104 363 -329 734 -624
1027 -226 225 -445 371 -741 493 -196 81 -484 157 -597 157 l-32 0 7 43 c4 23
7 61 8 85 0 23 1 42 3 42 1 0 48 -7 105 -15z m-643 -75 c0 -57 -4 -80 -12 -80
-56 -1 -235 -35 -338 -65 -409 -117 -739 -308 -1031 -598 -284 -282 -487 -627
-605 -1031 -35 -120 -64 -272 -64 -334 0 -30 -2 -33 -22 -25 -13 4 -52 8 -87
8 l-63 0 6 59 c17 164 103 492 168 641 150 346 319 592 573 834 196 186 365
305 617 430 265 133 605 234 801 240 l57 1 0 -80z m487 -335 c406 -53 775
-210 1085 -461 204 -165 377 -369 505 -597 416 -742 351 -1600 -172 -2257
-308 -387 -762 -656 -1286 -762 -102 -21 -142 -23 -374 -23 -244 1 -268 2
-385 27 -543 117 -1035 449 -1335 903 -143 215 -222 394 -279 628 -47 191 -56
268 -56 471 0 321 56 598 173 856 98 217 200 374 350 539 270 297 562 479 972
606 77 24 167 48 200 55 162 31 427 37 602 15z m2258 -1949 c84 -35 86 -169 3
-212 -44 -23 -113 -14 -146 19 -18 18 -26 39 -30 76 -5 60 13 95 61 116 41 18
70 18 112 1z m-4815 -33 c29 -32 32 -41 27 -81 -7 -67 -51 -107 -117 -107 -70
0 -101 32 -108 109 -4 52 -3 57 28 86 27 26 40 30 85 30 48 0 56 -3 85 -37z
m4763 -340 c78 -7 74 5 51 -152 -39 -265 -154 -583 -298 -821 -117 -192 -281
-396 -447 -556 -147 -141 -380 -301 -598 -409 -263 -131 -554 -218 -800 -241
l-66 -6 0 63 c0 35 -3 73 -8 85 -7 20 -3 21 85 27 252 18 611 145 888 315 189
116 434 332 586 517 192 233 341 503 419 761 34 112 85 358 85 411 0 20 4 24
18 18 9 -4 47 -10 85 -12z m-4743 -75 c19 -129 78 -351 126 -480 161 -433 486
-845 859 -1086 346 -225 619 -333 946 -376 61 -8 112 -16 114 -18 1 -2 5 -39
8 -84 l5 -80 -72 8 c-173 20 -409 78 -564 138 -172 67 -463 227 -606 335 -231
173 -509 472 -640 688 -166 275 -274 565 -331 890 l-22 127 41 1 c22 1 55 5
71 9 17 4 35 8 41 9 7 1 17 -33 24 -81z m2376 -1927 c40 -24 68 -82 59 -122
-4 -17 -20 -46 -37 -65 -26 -29 -37 -34 -74 -34 -34 0 -51 6 -78 31 -58 51
-61 126 -6 180 34 35 89 39 136 10z m885 -730 c37 -38 37 -63 -2 -95 l-31 -26
-899 0 c-962 0 -952 0 -978 48 -15 27 -13 43 5 67 21 28 103 31 1062 33 l814
2 29 -29z m-2546 -6 c29 -28 31 -43 11 -71 -11 -15 -25 -19 -61 -17 -104 4
-131 75 -38 103 46 14 63 11 88 -15z m405 5 c49 -49 4 -110 -82 -110 -91 0
-133 78 -63 118 35 20 122 15 145 -8z m2565 -5 c14 -13 25 -31 25 -40 0 -9
-11 -27 -25 -40 -21 -22 -33 -25 -95 -25 -57 0 -74 4 -90 20 -27 27 -25 56 5
85 21 22 33 25 90 25 57 0 69 -3 90 -25z m362 -1 c35 -48 -1 -94 -73 -94 -33
0 -45 5 -58 25 -21 32 -20 44 7 73 19 20 29 23 66 19 27 -3 50 -12 58 -23z
m-3593 0 c22 -22 20 -37 -9 -64 -25 -23 -27 -24 -67 -10 -54 20 -68 42 -44 69
24 26 97 29 120 5z m3854 -4 c29 -28 28 -37 -10 -60 -34 -20 -64 -25 -92 -14
-19 7 -22 64 -4 82 19 19 82 14 106 -8z"/>
<path d="M2485 5139 c-160 -10 -251 -27 -415 -76 -115 -34 -306 -113 -390
-161 -250 -142 -504 -376 -656 -604 -113 -168 -220 -410 -274 -615 -19 -74
-50 -285 -50 -345 l0 -28 512 2 513 3 6 52 c19 149 64 277 133 374 l34 46
-158 157 -157 158 -34 -21 c-98 -60 -227 19 -237 144 -3 42 0 61 17 92 46 81
141 114 219 74 60 -30 97 -84 98 -140 0 -46 1 -47 130 -172 200 -196 216 -208
229 -169 10 31 122 109 230 161 107 50 200 78 278 80 l47 2 0 237 0 238 -30
12 c-40 16 -67 56 -81 117 -10 43 -9 55 9 95 26 60 91 100 161 100 129 0 211
-129 156 -245 -17 -36 -71 -97 -86 -97 -5 0 -9 -103 -9 -228 l0 -229 44 -1
c67 -3 212 -49 296 -93 82 -44 219 -144 227 -167 4 -9 54 34 152 131 80 79
155 149 166 155 17 9 20 21 20 71 0 55 3 63 35 96 48 50 80 65 138 65 60 0
107 -29 139 -85 80 -142 -69 -317 -211 -247 l-42 20 -23 -34 c-13 -18 -81 -90
-153 -159 l-129 -126 24 -32 c62 -81 130 -260 143 -375 l7 -62 508 0 509 0 0
46 c0 195 -96 540 -207 743 -205 376 -495 657 -869 843 -164 82 -210 100 -366
142 -202 55 -356 69 -603 55z m-135 -588 c0 -45 -2 -49 -27 -54 -16 -3 -173
-3 -350 0 l-323 6 0 49 0 48 350 0 350 0 0 -49z m1253 7 c-3 -24 -8 -46 -12
-50 -8 -10 -677 -15 -686 -6 -13 13 6 87 23 91 9 3 166 5 349 6 l331 1 -5 -42z
m-2268 -598 c50 -5 125 -12 168 -16 62 -5 77 -10 77 -23 0 -9 3 -26 6 -38 l6
-23 -183 1 c-101 1 -231 4 -289 8 l-105 6 -3 44 c-2 24 1 47 7 50 13 9 203 3
316 -9z m2879 8 c3 -7 7 -32 10 -55 l6 -42 -247 -3 c-137 -2 -256 -1 -265 1
-13 2 -18 13 -18 37 0 38 -4 37 135 58 120 18 374 21 379 4z m-2595 -374 c1
-1 0 -24 -4 -51 l-6 -48 -177 0 c-97 1 -252 2 -344 3 l-168 2 0 50 0 49 118 4
c122 3 574 -4 581 -9z m2573 6 l118 0 0 -49 0 -50 -42 -6 c-24 -3 -173 -5
-333 -3 l-290 3 -5 52 -6 52 131 4 c71 2 170 2 219 0 49 -1 142 -3 208 -3z"/>
<path d="M2582 4824 c-21 -38 14 -72 65 -62 24 4 28 41 8 62 -21 21 -61 21
-73 0z"/>
<path d="M1446 4274 c-29 -29 -12 -64 31 -64 24 0 40 36 29 65 -7 20 -40 19
-60 -1z"/>
<path d="M3707 4276 c-8 -21 21 -56 47 -56 30 0 39 22 20 49 -17 24 -59 28
-67 7z"/>
<path d="M2538 4000 c-284 -33 -516 -224 -608 -499 -84 -251 -51 -505 90 -696
83 -112 198 -194 353 -253 79 -29 107 -35 207 -39 142 -6 232 11 347 66 238
114 383 319 423 597 10 68 9 100 -4 188 -33 225 -143 391 -349 527 -157 104
-271 131 -459 109z m204 -420 c87 -33 161 -98 200 -177 30 -61 33 -76 33 -158
0 -78 -4 -97 -28 -146 -34 -71 -119 -152 -194 -187 -144 -66 -344 -1 -440 142
-43 64 -57 115 -57 211 -1 94 23 152 88 223 92 100 268 141 398 92z"/>
<path d="M2557 3446 c-93 -34 -146 -108 -147 -202 0 -66 33 -130 89 -169 57
-40 143 -42 216 -4 42 21 55 35 83 90 29 54 33 72 30 116 -11 127 -149 214
-271 169z"/>
<path d="M718 3173 c-31 -5 -30 12 -8 -178 34 -289 126 -529 303 -795 131
-196 224 -297 415 -448 327 -260 701 -395 1128 -409 256 -9 452 23 689 109
429 157 759 421 994 796 147 233 209 383 256 617 23 111 44 304 34 305 -2 1
-232 3 -510 6 l-507 5 -7 -63 c-15 -128 -72 -286 -133 -367 l-26 -33 29 -20
c17 -11 85 -77 152 -146 l122 -125 42 17 c85 34 166 -7 209 -106 27 -64 23
-114 -15 -164 -30 -40 -94 -73 -138 -74 -93 0 -189 117 -166 203 7 25 -1 36
-104 135 -61 59 -129 126 -150 150 -22 23 -45 42 -52 42 -6 0 -29 -18 -50 -41
-109 -112 -312 -208 -479 -225 l-66 -7 0 -243 c0 -231 1 -244 18 -244 11 0 26
-8 35 -18 25 -27 57 -104 57 -138 0 -48 -49 -135 -90 -156 -41 -22 -120 -24
-158 -4 -59 31 -102 103 -102 172 0 52 45 129 86 149 l34 16 -2 232 -3 232
-63 8 c-89 11 -234 60 -320 108 -40 22 -104 69 -141 105 l-69 64 -79 -82 c-44
-46 -103 -109 -132 -140 -29 -32 -66 -63 -82 -70 -26 -12 -28 -16 -27 -69 2
-173 -212 -245 -302 -102 -41 64 -45 103 -19 163 38 89 116 132 196 111 23 -6
45 -16 48 -21 3 -5 70 56 149 136 80 79 152 144 161 144 13 0 12 7 -10 43 -67
108 -124 272 -137 397 l-3 25 -490 1 c-269 1 -502 -1 -517 -3z m689 -193 l204
0 -3 -42 -3 -43 -255 -2 c-140 -2 -298 0 -350 5 l-95 7 -3 44 -3 44 152 -6
c84 -4 244 -7 356 -7z m2903 -25 c0 -58 10 -56 -342 -62 l-325 -6 -6 39 c-4
21 -7 44 -7 49 0 6 120 10 340 10 l340 0 0 -30z m-2870 -366 c0 -25 -6 -32
-33 -44 -66 -28 -362 -48 -393 -27 -6 4 -13 26 -17 49 l-5 42 92 4 c50 1 151
4 224 5 l132 2 0 -31z m2737 15 l59 -6 -6 -42 -5 -41 -130 1 c-72 1 -150 7
-174 13 -40 11 -91 52 -91 72 0 10 258 12 347 3z m-1819 -615 l3 -46 -92 -6
c-51 -4 -206 -7 -346 -7 l-254 0 7 48 c3 26 9 50 11 55 2 4 154 6 336 5 l332
-3 3 -46z m1210 44 l53 -6 -3 -41 -3 -41 -75 -8 c-113 -12 -643 1 -652 16 -4
7 -8 29 -8 50 l0 37 318 0 c174 0 341 -3 370 -7z"/>
<path d="M1444 2305 c-10 -25 4 -45 31 -45 30 0 43 24 25 45 -16 19 -49 19
-56 0z"/>
<path d="M3711 2306 c-19 -23 3 -56 38 -56 33 0 46 22 31 51 -13 22 -52 25
-69 5z"/>
<path d="M2584 1756 c-17 -45 40 -86 73 -53 26 26 3 67 -37 67 -17 0 -33 -6
-36 -14z"/>
</g>
</svg>
